<mxfile host="app.diagrams.net" modified="2023-10-19T03:12:27.724Z" agent="Mozilla/5.0 (Windows NT 10.0; Win64; x64) AppleWebKit/537.36 (KHTML, like Gecko) Chrome/118.0.0.0 Safari/537.36" version="22.0.4" etag="YgiD8qCgrK6YHfmNKgSR" type="github">
  <diagram name="第 1 页" id="86WtWx8YtGy9YFfqbcSh">
    <mxGraphModel>
      <root>
        <mxCell id="0" />
        <mxCell id="1" parent="0" />
      </root>
    </mxGraphModel>
  </diagram>
</mxfile>
